<svg version="1.2" xmlns="http://www.w3.org/2000/svg" viewBox="0 0 653 262">
	<title>MyAnimeBot</title>
	<style>
		.s0 { fill: #2e51a2 } 
	</style>
	<path id="MAB" class="s0" d="m212.2 0.6v228.4h-59.9v-138.1h-0.5l-46.2 61.5-45-61.5h-0.6v138.1h-59.8v-228.4h56.8l48.6 67.1 49.8-67.1zm213.2 58.4v170h-59.8v-72.4h-65.4q0.4 35.1 22.9 72.4l-48.6 32.1q-11.1-16.5-19.1-35.2-8-18.8-12.2-38.7-4.3-19.9-4.3-39.6 0-20.4 4.5-40.2 4.4-19.8 13.6-37.6 9.2-17.9 23.1-31.8 15.2-15.3 32.5-23.5 17.5-8.1 36.3-11 18.8-2.9 43.3-2.9h29.3l14 51.4h-47q-29.2 0-46.1 8.4-16.9 8.4-23.6 18.8-6.7 10.4-12.8 25.9h59.6v-46.1zm149.6 170h-110.1v-170h59.8v118.5h34.3q11.9 0 19-2.3 7.1-2.3 7.1-11.3 0-7.9-6.1-16.2-6-8.4-15.4-16-9.4-7.7-19.1-13.7-9.7-5.9-17-9.2l18.7-14.3q11.8-8.2 20.3-16.2 8.5-8 8.5-15.6 0-5.2-2.7-7.4-2.7-2.3-8.1-2.7-5.3-0.6-17.2-0.6h-93.3l14-51.4h107.9q24.9 0 39.9 7.6 14.9 7.5 20.9 19.4 6 11.9 6 25.9 0 10.4-4 19.5-4 9.1-10.3 16.4-6.4 7.3-15.9 15.4 18.4 13.2 29.3 30.4 10.9 17.2 10.9 37.9 0 14.6-6.7 27.2-6.8 12.5-24.1 20.6-17.2 8.1-46.6 8.1z"/>
</svg>