<svg version="1.2" xmlns="http://www.w3.org/2000/svg" viewBox="0 0 653 262">
	<title>MyAnimeBot</title>
	<style>
		.s0 { fill: #2e51a2 } 
	</style>
	<path id="MAB" class="s0" d="m244.2 0.6v164.3h-43.1v-99.3h-0.3l-33.3 44.2-32.3-44.2h-0.5v99.3h-43v-164.3h40.9l34.9 48.3 35.9-48.3zm153.3 42v122.3h-43v-52.1h-47q0.3 25.3 16.4 52.1l-34.9 23.1q-8-11.9-13.8-25.3-5.7-13.5-8.7-27.9-3.1-14.3-3.1-28.5 0-14.6 3.2-28.9 3.2-14.2 9.8-27 6.6-12.9 16.6-22.9 10.9-11 23.4-16.9 12.6-5.8 26.1-7.9 13.5-2.1 31.1-2.1h21.1l10.1 37h-33.8q-21 0-33.2 6-12.1 6.1-17 13.5-4.8 7.5-9.2 18.7h42.9v-33.2zm107.6 122.3h-79.2v-122.3h43v85.3h24.7q8.6 0 13.7-1.7 5.1-1.6 5.1-8.1 0-5.7-4.4-11.7-4.3-6-11.1-11.5-6.7-5.5-13.7-9.8-7-4.3-12.2-6.7l13.4-10.2q8.5-5.9 14.6-11.7 6.1-5.8 6.1-11.2 0-3.8-1.9-5.3-2-1.7-5.8-2-3.9-0.4-12.4-0.4h-67.1l10-37h77.7q17.9 0 28.7 5.5 10.7 5.4 15 13.9 4.3 8.6 4.3 18.7 0 7.4-2.9 14-2.8 6.5-7.4 11.8-4.6 5.2-11.4 11.1 13.2 9.5 21.1 21.8 7.8 12.4 7.8 27.3 0 10.5-4.8 19.6-4.9 9-17.3 14.8-12.4 5.8-33.6 5.8z"/>
	<path id="MyAnimeBot" class="s0" aria-label="MyAnimeBot"  d="m177 197.5v50.5h-13.2v-30.6h-0.1l-10.3 13.7-9.9-13.7h-0.1v30.6h-13.3v-50.5h12.6l10.7 14.8 11.1-14.8zm40.7 13.1l-17.8 50.3h-12.7l5.8-16.1-13.4-34.2h14.1l5.4 17.7h0.1l5.4-17.7zm41.1-0.2v37.6h-13.2v-16h-14.5q0.1 7.7 5 16l-10.7 7.1q-2.5-3.7-4.2-7.8-1.8-4.1-2.7-8.5-1-4.5-1-8.8 0-4.5 1-8.9 1-4.4 3-8.3 2.1-4 5.1-7.1 3.4-3.4 7.2-5.2 3.9-1.8 8.1-2.4 4.1-0.6 9.5-0.6h6.5l3.1 11.3h-10.4q-6.4 0-10.2 1.9-3.7 1.8-5.2 4.1-1.5 2.3-2.8 5.8h13.2v-10.2zm7.5 0.2h18.4q5 0 7.9 1.5 3 1.5 4.2 4.7 1.3 3.1 1.3 8.2v23h-11.9v-21.3q-0.1-2.8-0.4-3.9-0.2-1.1-1.3-1.5-1-0.5-3.5-0.6h-2.9v27.3h-11.8zm50.3 0v37.4h-11.9v-37.4zm0-13.2v10.1h-11.9v-10.1zm6.7 13.2h35.5q5 0 8 1.5 2.9 1.5 4.2 4.6 1.2 3.2 1.2 8.3v23h-11.6v-21.3q0-2.8-0.3-3.9-0.3-1.1-1.3-1.6-1-0.4-3.6-0.5h-1.9v27.3h-11.5v-27.3h-7.2v27.3h-11.5zm85.4 27.3l-3 10h-7.1q-5.8 0-10.9-3.1-5-3.1-7.9-8.4-2.9-5.4-2.9-11.5 0-5.2 1.7-8.6 1.7-3.3 5.5-5 3.7-1.6 9.9-1.6h2.5q14 0 14 10.3 0 3.9-1.9 7.1-1.9 3.2-4.9 5.6-2.9 2.3-6.7 4.5 3.1 0.7 7 0.7zm-14-18.1q-5.7 0-5.7 5.6 0 2.1 0.8 4.4 1.7-0.9 3.7-2.1 1.9-1.3 3.4-2.9 1.5-1.6 1.5-3.1 0-1.2-1-1.6-1-0.3-2.7-0.3zm45.7 28.1h-24.4v-37.6h13.3v26.3h7.6q2.6 0 4.2-0.6 1.5-0.5 1.5-2.5 0-1.7-1.3-3.5-1.3-1.9-3.4-3.6-2.1-1.7-4.2-3-2.2-1.3-3.8-2.1l4.1-3.1q2.6-1.8 4.5-3.6 1.9-1.8 1.9-3.5 0-1.1-0.6-1.6-0.6-0.5-1.8-0.6-1.2-0.1-3.8-0.1h-20.7l3.1-11.4h23.9q5.6 0 8.9 1.7 3.3 1.6 4.6 4.3 1.3 2.6 1.3 5.7 0 2.3-0.9 4.3-0.9 2-2.3 3.6-1.4 1.7-3.5 3.5 4.1 2.9 6.5 6.7 2.4 3.8 2.4 8.4 0 3.2-1.5 6-1.5 2.7-5.3 4.5-3.8 1.8-10.3 1.8zm36-38.2h5.2q6.8 0 10.2 2.8 3.4 2.8 4.2 5.9 0.8 3 0.8 5.5 0 6-2.2 11.9-2.2 5.8-6.2 9.5-4.1 3.8-9.4 3.8-4.1 0-7.4-2.2-3.4-2.2-5.7-5.9-2.4-3.7-3.6-8.2-1.2-4.5-1.2-8.9 0-2.5 0.8-5.5 0.8-3.1 4.2-5.9 3.4-2.8 10.3-2.8zm8.3 15.2q0-5.1-5.7-5.1-5.8 0-5.8 5.1 0 3.7 0.9 6.7 1 3.1 2.3 4.9 1.4 1.8 2.6 1.8 1.1 0 2.4-1.8 1.4-1.7 2.3-4.8 1-3.1 1-6.8zm29.2-25.2v10.9h6.3v9.7h-6.3v14.3q0 3.1 3 3.3h4.7l-2.9 10h-5.4q-5.4 0-8.3-2.5-3-2.6-3-8.9v-16.2h-2.6v-9.7h2.6v-7.3z"/>
</svg>